<svg width="227" height="193" viewBox="0 0 227 193" fill="none" xmlns="http://www.w3.org/2000/svg">
<path d="M84.1294 146.237L95.7785 143.126L115.518 189.053L103.869 192.164L84.1294 146.237Z" fill="#CABEFF"/>
<path d="M163.982 85.8896L166.77 76.4435L226.663 87.4367L223.875 96.8828L163.982 85.8896Z" fill="#CABEFF"/>
<path fill-rule="evenodd" clip-rule="evenodd" d="M0.491699 0V148.141C15.3719 153.181 31.7665 155.972 48.9879 155.972C116.912 155.972 171.976 112.55 171.976 58.986C171.976 36.7943 162.524 16.3434 146.622 0H0.491699ZM72.3559 116.208C72.3559 122.903 65.473 128.331 56.9824 128.331C48.4919 128.331 41.6089 122.903 41.6089 116.208C41.6089 109.512 48.4919 104.085 56.9824 104.085C65.473 104.085 72.3559 109.512 72.3559 116.208ZM109.252 76.4438C117.743 76.4438 124.625 71.016 124.625 64.3205C124.625 57.625 117.743 52.1973 109.252 52.1973C100.761 52.1973 93.8785 57.625 93.8785 64.3205C93.8785 71.016 100.761 76.4438 109.252 76.4438Z" fill="#CABEFF"/>
</svg>
