<svg width="128" height="134" viewBox="0 0 128 134" fill="none" xmlns="http://www.w3.org/2000/svg">
<path d="M57.4618 3.65432L7.05752 32.3114C3.93114 34.0889 2 37.4083 2 41.0046V95.412C2 99.1896 4.12871 102.645 7.50273 104.344L60.5653 131.062C63.4481 132.513 66.8541 132.484 69.7117 130.984L120.371 104.383C123.661 102.655 125.722 99.2453 125.722 95.5291V39.3446C125.722 35.5751 123.602 32.1259 120.239 30.4231L66.9217 3.42603C63.9296 1.911 60.3773 1.99673 57.4618 3.65432Z" stroke="#CABEFF" stroke-width="3"/>
<path fill-rule="evenodd" clip-rule="evenodd" d="M28.5943 43.1592L57.9792 26.0333C60.9405 24.3075 64.5794 24.2185 67.6215 25.7975L98.6988 41.9282C102.012 43.6481 104.092 47.0706 104.092 50.8039V84.3361C104.092 88.0154 102.071 91.3976 98.8317 93.1415L69.3467 109.013C66.4416 110.576 62.9521 110.606 60.0203 109.093L29.043 93.1041C25.7183 91.3881 23.6296 87.9595 23.6296 84.218V51.7989C23.6296 48.2409 25.5202 44.9508 28.5943 43.1592ZM37.4213 48.3702L57.9659 36.9449C60.8404 35.3464 64.3171 35.2635 67.2644 36.7233L89.0132 47.495C92.4196 49.1822 94.5749 52.6548 94.5749 56.4561V77.8175C94.5749 81.5662 92.4783 85 89.1437 86.7127L68.5562 97.287C65.7412 98.7329 62.4079 98.7609 59.569 97.3627L37.8631 86.6722C34.4458 84.9891 32.2815 81.5106 32.2815 77.7013V57.1097C32.2815 53.4795 34.2488 50.1345 37.4213 48.3702Z" fill="#CABEFF"/>
<path d="M57.9792 26.0333L57.2239 24.7374L57.2239 24.7374L57.9792 26.0333ZM28.5943 43.1592L29.3496 44.4551L29.3496 44.4551L28.5943 43.1592ZM67.6215 25.7975L68.3125 24.4661L68.3125 24.4661L67.6215 25.7975ZM98.6988 41.9282L99.3899 40.5969L99.3899 40.5969L98.6988 41.9282ZM98.8317 93.1415L98.1207 91.8207L98.1207 91.8207L98.8317 93.1415ZM69.3467 109.013L70.0576 110.333L70.0576 110.333L69.3467 109.013ZM60.0203 109.093L59.3324 110.426L59.3324 110.426L60.0203 109.093ZM29.043 93.1041L29.731 91.7712L29.731 91.7712L29.043 93.1041ZM57.9659 36.9449L57.2369 35.634L57.2369 35.634L57.9659 36.9449ZM37.4213 48.3702L38.1503 49.6811L38.1503 49.6811L37.4213 48.3702ZM67.2644 36.7233L66.5987 38.0674L66.5987 38.0674L67.2644 36.7233ZM89.0132 47.495L89.6789 46.1509L89.6789 46.1509L89.0132 47.495ZM89.1437 86.7127L89.829 88.047L89.829 88.047L89.1437 86.7127ZM68.5562 97.287L67.8709 95.9527L67.8708 95.9527L68.5562 97.287ZM59.569 97.3627L60.2317 96.0171L60.2317 96.0171L59.569 97.3627ZM37.8631 86.6722L37.2004 88.0179L37.2004 88.0179L37.8631 86.6722ZM57.2239 24.7374L27.839 41.8632L29.3496 44.4551L58.7345 27.3293L57.2239 24.7374ZM68.3125 24.4661C64.8141 22.6503 60.6294 22.7526 57.2239 24.7374L58.7345 27.3293C61.2516 25.8623 64.3446 25.7867 66.9304 27.1288L68.3125 24.4661ZM99.3899 40.5969L68.3125 24.4661L66.9304 27.1288L98.0078 43.2596L99.3899 40.5969ZM105.592 50.8039C105.592 46.5106 103.2 42.5748 99.3899 40.5969L98.0078 43.2596C100.824 44.7215 102.592 47.6306 102.592 50.8039H105.592ZM105.592 84.3361V50.8039H102.592V84.3361H105.592ZM99.5426 94.4623C103.268 92.4568 105.592 88.5673 105.592 84.3361H102.592C102.592 87.4635 100.875 90.3383 98.1207 91.8207L99.5426 94.4623ZM70.0576 110.333L99.5426 94.4623L98.1207 91.8207L68.6357 107.692L70.0576 110.333ZM59.3324 110.426C62.7039 112.166 66.7168 112.132 70.0576 110.333L68.6357 107.692C66.1664 109.021 63.2003 109.047 60.7083 107.76L59.3324 110.426ZM28.355 94.4371L59.3324 110.426L60.7083 107.76L29.731 91.7712L28.355 94.4371ZM22.1296 84.218C22.1296 88.5208 24.5316 92.4636 28.355 94.4371L29.731 91.7712C26.905 90.3125 25.1296 87.3983 25.1296 84.218H22.1296ZM22.1296 51.7989V84.218H25.1296V51.7989H22.1296ZM27.839 41.8632C24.3038 43.9235 22.1296 47.7071 22.1296 51.7989H25.1296C25.1296 48.7746 26.7366 45.978 29.3496 44.4551L27.839 41.8632ZM57.2369 35.634L36.6923 47.0593L38.1503 49.6811L58.695 38.2558L57.2369 35.634ZM67.9301 35.3791C64.5407 33.7004 60.5425 33.7957 57.2369 35.634L58.695 38.2558C61.1382 36.8971 64.0934 36.8266 66.5987 38.0674L67.9301 35.3791ZM89.6789 46.1509L67.9301 35.3791L66.5987 38.0674L88.3474 48.8392L89.6789 46.1509ZM96.0749 56.4561C96.0749 52.0846 93.5963 48.0911 89.6789 46.1509L88.3474 48.8392C91.2429 50.2733 93.0749 53.225 93.0749 56.4561H96.0749ZM96.0749 77.8175V56.4561H93.0749V77.8175H96.0749ZM89.829 88.047C93.6638 86.0774 96.0749 82.1285 96.0749 77.8175H93.0749C93.0749 81.0039 91.2928 83.9226 88.4584 85.3785L89.829 88.047ZM69.2415 98.6213L89.829 88.047L88.4584 85.3785L67.8709 95.9527L69.2415 98.6213ZM58.9062 98.7084C62.171 100.316 66.0043 100.284 69.2415 98.6213L67.8708 95.9527C65.4781 97.1817 62.6448 97.2056 60.2317 96.0171L58.9062 98.7084ZM37.2004 88.0179L58.9062 98.7084L60.2317 96.0171L38.5259 85.3266L37.2004 88.0179ZM30.7815 77.7013C30.7815 82.082 33.2704 86.0823 37.2004 88.0179L38.5259 85.3266C35.6211 83.8959 33.7815 80.9392 33.7815 77.7013H30.7815ZM30.7815 57.1097V77.7013H33.7815V57.1097H30.7815ZM36.6923 47.0593C33.0438 49.0882 30.7815 52.935 30.7815 57.1097H33.7815C33.7815 54.024 35.4537 51.1808 38.1503 49.6811L36.6923 47.0593Z" fill="#CABEFF"/>
<path d="M103.227 45.9199L124.424 34.7893" stroke="#CABEFF" stroke-width="3"/>
<path d="M26.6577 48.7026L4.16284 35.9819" stroke="#CABEFF" stroke-width="3"/>
<path d="M64.2935 109.523V132.58" stroke="#CABEFF" stroke-width="3"/>
</svg>
