<svg width="174" height="154" viewBox="0 0 174 154" fill="none" xmlns="http://www.w3.org/2000/svg">
<path d="M148.546 37.0365C140.733 29.0484 124.172 36.3007 124.172 36.3007C135.479 43.4071 140.073 48.4809 145.747 59.1088C145.747 59.1088 156.36 45.0245 148.546 37.0365Z" fill="#CABEFF"/>
<path fill-rule="evenodd" clip-rule="evenodd" d="M92.4513 135.028C125.042 135.028 151.462 110.981 151.462 81.3184C151.462 51.6556 125.042 27.6091 92.4513 27.6091C59.8608 27.6091 33.4409 51.6556 33.4409 81.3184C33.4409 110.981 59.8608 135.028 92.4513 135.028ZM90.349 82.6847C86.034 88.2979 79.1272 91.9341 71.343 91.9341C58.2681 91.9341 47.6688 81.6755 47.6688 69.0209C47.6688 56.3663 58.2681 46.1077 71.343 46.1077C79.1272 46.1077 86.034 49.744 90.349 55.3571C95.0891 49.744 102.676 46.1077 111.228 46.1077C125.591 46.1077 137.234 56.3663 137.234 69.0209C137.234 81.6755 125.591 91.9341 111.228 91.9341C102.676 91.9341 95.0891 88.2979 90.349 82.6847ZM80.6915 67.97C80.6915 73.6588 74.8051 80.0572 69.8457 80.0572C64.8863 80.0572 60.8658 75.9581 61.7988 68.4955C63.1982 63.3453 66.1137 58.09 72.6445 58.09C77.604 58.09 80.6915 62.2813 80.6915 67.97ZM93.0853 95.9681C91.8148 97.454 91.022 98.1502 89.3628 98.9755C88.0167 98.0503 87.3934 97.4396 86.601 96.0989C87.8155 94.6712 88.6576 94.1538 90.3234 93.5099C91.9725 94.2238 92.5682 94.777 93.0853 95.9681ZM66.6588 73.8975C68.3609 73.8975 70.3813 72.3056 70.3813 70.8902C70.3813 69.4748 69.3216 68.432 67.6194 68.432C65.3779 68.432 64.3772 69.7396 63.8969 71.021C63.5767 72.8777 64.9566 73.8975 66.6588 73.8975ZM116.242 70.2181C116.242 71.6335 114.222 73.2254 112.52 73.2254C110.817 73.2254 109.438 72.2056 109.758 70.3488C110.238 69.0675 111.239 67.7599 113.48 67.7599C115.182 67.7599 116.242 68.8027 116.242 70.2181ZM104.346 67.97C104.346 73.6588 110.233 80.0572 115.192 80.0572C120.152 80.0572 124.172 75.9581 123.239 68.4955C121.84 63.3453 118.924 58.09 112.393 58.09C107.434 58.09 104.346 62.2813 104.346 67.97Z" fill="#CABEFF"/>
<path d="M17.6993 90.8836C24.6207 91.7912 32.4047 89.811 36.1233 84.472C39.4592 79.6826 35 79.28 35.5402 73.6461C36.1209 67.5913 39.6044 66.1983 38.5724 60.1925C37.4925 53.908 27.2623 46.4236 27.2623 46.4236C27.2623 46.4236 16.1876 39.6957 10.5833 43.4806C4.82476 47.3696 8.83395 57.1444 8.83395 59.0364C8.83395 60.9283 1.20725 58.9535 0.553837 66.4989C0.089637 71.8593 5.10212 71.7542 4.40232 73.6461C3.70251 75.5381 0.681118 75.8678 0.089637 79.5321C-1.08885 86.8329 9.59868 89.8213 17.6993 90.8836Z" fill="#CABEFF"/>
<path d="M147.964 99.1868C150.522 92.5016 151.346 81.634 151.346 81.634C151.346 81.634 165.195 86.8893 170.705 100.553C172.139 104.11 173.037 111.064 173.037 111.064C173.037 111.064 172.223 116.565 169.305 118.106C166.673 119.497 164.384 118.983 161.492 118.106C160.391 117.772 159.159 115.794 159.742 114.427C160.325 113.061 160.711 110.504 161.025 107.07L157.293 117.685C157.293 117.685 154.673 121.412 151.929 121.68C149.372 121.928 147.692 121.212 147.147 118.947C146.824 117.603 147.881 116.348 148.397 115.832C147.358 116.769 143.505 119.966 140.733 118.526C138.926 117.588 138.284 117.463 138.284 115.583C138.284 109.592 145.256 106.261 147.964 99.1868Z" fill="#CABEFF"/>
<path d="M73.3253 30.2369C72.0426 30.2369 69.7556 19.7205 73.3253 14.471C77.7568 7.95421 83.8211 2.59378 93.1508 0.281547C98.4184 -1.02395 101.327 2.39717 103.997 6.69311C107.088 11.6686 100.862 19.906 98.6627 22.556C99.7468 21.3797 101.882 19.3779 103.997 19.2006C106.354 19.0029 106.572 18.769 107.845 20.5671C108.515 21.5129 109.828 29.8165 99.7982 29.7112C89.7686 29.6059 74.608 30.2369 73.3253 30.2369Z" fill="#CABEFF"/>
<path d="M70.0604 133.296C69.2002 132.676 68.6609 132.35 68.6609 131.404C68.6607 125.272 86.6001 129.126 85.571 135.188C85.4272 136.035 85.3526 136.62 84.6381 137.185C83.7484 137.89 78.9096 136.371 75.7749 135.504C72.9365 134.718 70.6436 133.717 70.0604 133.296Z" fill="#CABEFF"/>
<path d="M104.404 137.233C103.303 137.214 102.655 137.252 102.015 136.502C97.8662 131.642 114.693 124.84 117.978 130.21C118.437 130.961 118.773 131.465 118.59 132.306C118.361 133.353 113.498 134.807 110.427 135.843C107.646 136.78 105.151 137.246 104.404 137.233Z" fill="#CABEFF"/>
<path d="M71.11 147.536C71.5765 145.644 71.11 133.661 71.11 133.661L83.4718 137.55C83.4718 137.55 82.3335 145.093 83.4718 149.743C83.956 151.72 85.6195 152.69 85.2212 154.683C84.7528 157.026 80.5563 159.097 80.5563 159.097L76.941 159.307H71.3432L71.829 158.815C71.4209 159.17 70.9658 159.512 70.5269 159.728C68.444 160.751 64.4626 160.043 64.4626 160.043C64.4626 160.043 63.453 159.862 62.9465 159.518C62.0677 158.92 61.9679 158.183 61.7803 157.205C61.5933 156.231 61.6921 155.628 62.0135 154.683C62.4466 153.409 64.1127 151.845 64.1127 151.845C64.1127 151.845 61.8022 153.267 61.3138 154.683C60.9622 155.702 61.0342 156.378 61.3138 157.416C61.5783 158.397 62.5966 159.728 62.5966 159.728L59.4478 159.518C59.4478 159.518 57.4546 159.826 56.4157 159.307C55.5687 158.885 54.783 157.626 54.783 157.626C54.783 157.626 54.5114 157.063 54.4331 156.68C54.1046 155.073 55.1276 154.046 56.4157 152.896C57.5444 151.888 60.0309 151.214 60.0309 151.214C60.0309 151.214 57.3743 151.838 56.0655 152.896C54.5323 154.135 53.9595 155.189 54.4331 156.995C54.7151 158.071 55.1326 158.887 55.716 159.307C56.2993 159.728 53.4836 158.923 52.5669 158.677C51.0211 158.262 50.9374 157.438 50.8224 156.306L50.8176 156.259C50.6465 154.579 50.3469 153.487 51.7508 152.37C55.7158 149.217 70.6435 149.427 71.11 147.536Z" fill="#CABEFF"/>
<path d="M116.42 147.641C115.953 145.749 116.42 133.767 116.42 133.767L104.058 137.656C104.058 137.656 105.196 145.198 104.058 149.848C103.574 151.825 101.91 152.795 102.308 154.788C102.777 157.131 106.973 159.202 106.973 159.202L110.589 159.413H116.186L115.701 158.92C116.109 159.275 116.564 159.617 117.003 159.833C119.086 160.856 123.067 160.148 123.067 160.148C123.067 160.148 124.077 159.967 124.583 159.623C125.462 159.026 125.562 158.288 125.749 157.31C125.936 156.336 125.838 155.733 125.516 154.788C125.083 153.514 123.417 151.95 123.417 151.95C123.417 151.95 125.727 153.372 126.216 154.788C126.567 155.807 126.495 156.484 126.216 157.521C125.951 158.502 124.933 159.833 124.933 159.833L128.082 159.623C128.082 159.623 130.075 159.931 131.114 159.413C131.961 158.99 132.747 157.731 132.747 157.731C132.747 157.731 133.018 157.168 133.097 156.785C133.425 155.178 132.402 154.151 131.114 153.001C129.985 151.993 127.499 151.319 127.499 151.319C127.499 151.319 130.155 151.943 131.464 153.001C132.997 154.24 133.57 155.294 133.097 157.1C132.815 158.176 132.397 158.992 131.814 159.413C131.23 159.833 134.046 159.028 134.963 158.782C136.509 158.367 136.592 157.543 136.707 156.411L136.712 156.364C136.883 154.684 137.183 153.592 135.779 152.476C131.814 149.322 116.886 149.533 116.42 147.641Z" fill="#CABEFF"/>
</svg>
