<svg width="100" height="100" viewBox="0 0 100 100" fill="none" xmlns="http://www.w3.org/2000/svg">
<path d="M49.9374 9.75C51.1839 9.72422 52.4304 9.69844 53.7147 9.67188C56.9999 10 56.9999 10 58.9413 11.3281C59.9999 13 59.9999 13 59.9999 16C60.8522 15.9738 61.7045 15.9476 62.5826 15.9207C65.7601 15.8352 68.9371 15.7726 72.1154 15.7253C73.4879 15.7003 74.8604 15.6662 76.2325 15.6228C78.2104 15.5618 80.1892 15.5364 82.1678 15.5117C83.3566 15.4855 84.5454 15.4594 85.7701 15.4324C90.0823 16.1902 91.4757 17.4476 93.9999 21C94.4758 23.8753 94.6582 26.1417 94.5936 29.0039C94.5937 29.7642 94.5937 30.5245 94.5938 31.3078C94.5884 32.909 94.5709 34.5102 94.5419 36.1111C94.4999 38.5586 94.5008 41.0034 94.5077 43.4512C94.4972 45.0104 94.4843 46.5697 94.4686 48.1289C94.4683 49.2228 94.4683 49.2228 94.468 50.3388C94.4011 53.2153 94.2014 55.5743 92.9624 58.1919C90.0157 60.9067 86.9856 60.5586 83.1796 60.5176C81.9864 60.5281 81.9864 60.5281 80.7692 60.5388C78.1374 60.5564 75.5067 60.5448 72.8749 60.5312C71.0479 60.5339 69.2209 60.5378 67.3939 60.5428C63.5639 60.5487 59.7342 60.5402 55.9042 60.5215C50.9909 60.4987 46.0785 60.5118 41.1653 60.5358C37.3923 60.5502 33.6196 60.5456 29.8466 60.5353C28.0349 60.5326 26.2231 60.5359 24.4114 60.5452C21.8805 60.5553 19.351 60.5399 16.8202 60.5176C16.0689 60.5257 15.3177 60.5338 14.5436 60.5421C11.2939 60.489 9.47843 60.4409 7.03735 58.1919C5.48445 54.9111 5.53211 51.6881 5.53113 48.1289C5.52351 47.3696 5.5159 46.6102 5.50806 45.8279C5.49727 44.225 5.4944 42.6221 5.4989 41.0193C5.49987 38.5735 5.45824 36.1309 5.41394 33.6855C5.40873 32.125 5.40605 30.5645 5.40613 29.0039C5.38973 28.2767 5.37334 27.5495 5.35645 26.8002C5.40739 23.0363 5.91336 21.1218 8.10999 18.0303C11.6556 15.5394 13.5312 15.417 17.8319 15.5117C19.1242 15.5278 20.4165 15.5439 21.7479 15.5605C23.1028 15.6023 24.4576 15.6446 25.8124 15.6875C27.1867 15.7126 28.561 15.7354 29.9354 15.7559C33.2914 15.8147 36.6451 15.8969 39.9999 16C40.1855 14.7934 40.1855 14.7934 40.3749 13.5625C40.5811 12.7169 40.7874 11.8712 40.9999 11C43.9538 9.52306 46.6515 9.79069 49.9374 9.75ZM48.9999 47C48.3399 48.32 47.6799 49.64 46.9999 51C48.9799 51.99 48.9799 51.99 50.9999 53C51.6599 51.68 52.3199 50.36 52.9999 49C51.6799 48.34 50.3599 47.68 48.9999 47Z" fill="white"/>
<path d="M6.00008 64C6.50056 64.1623 7.00104 64.3247 7.51668 64.4919C10.921 65.1884 14.2756 65.139 17.7345 65.1294C18.5089 65.1311 19.2833 65.1329 20.0813 65.1347C22.6376 65.1391 25.1938 65.1362 27.7501 65.1328C29.5284 65.1335 31.3067 65.1345 33.085 65.1357C36.8106 65.1372 40.5362 65.135 44.2618 65.1304C49.0368 65.1247 53.8117 65.128 58.5867 65.1339C62.2584 65.1376 65.9301 65.1364 69.6018 65.1338C71.3624 65.1331 73.1231 65.134 74.8837 65.1363C77.3444 65.1388 79.805 65.135 82.2657 65.1294C83.3568 65.1324 83.3568 65.1324 84.4699 65.1355C87.7898 65.1216 90.8257 65.0296 94.0001 64C94.1358 66.3977 94.2344 68.7878 94.3126 71.1875C94.3545 71.861 94.3964 72.5346 94.4395 73.2285C94.5295 76.9188 94.2008 78.7364 91.9476 81.6952C88.3545 84.5048 85.732 84.71 81.3516 84.647C80.2214 84.6601 80.2214 84.6601 79.0684 84.6735C76.5867 84.6955 74.1068 84.681 71.6251 84.6641C69.8954 84.6674 68.1658 84.6723 66.4361 84.6786C62.8146 84.6859 59.1938 84.6752 55.5723 84.6519C50.9349 84.6234 46.2989 84.6398 41.6615 84.6697C38.0909 84.6878 34.5206 84.682 30.95 84.6691C29.2404 84.6657 27.5307 84.6698 25.8212 84.6815C23.4295 84.6942 21.0401 84.6748 18.6485 84.647C17.945 84.6571 17.2415 84.6672 16.5166 84.6776C12.7204 84.596 11.0785 84.0613 8.05257 81.6952C5.38967 78.1985 5.42602 75.3925 5.68758 71.1875C5.71014 70.4946 5.7327 69.8018 5.75594 69.0879C5.81445 67.391 5.90412 65.6952 6.00008 64Z" fill="white"/>
</svg>
