<svg width="100" height="100" viewBox="0 0 100 100" fill="none" xmlns="http://www.w3.org/2000/svg">
<path d="M11.9999 35C37.0799 35 62.1599 35 87.9999 35C88.0824 41.9713 88.1649 48.9425 88.2499 56.125C88.2863 58.3153 88.3227 60.5056 88.3603 62.7622C88.3719 64.5107 88.3821 66.2593 88.3905 68.0078C88.411 68.9056 88.4315 69.8033 88.4525 70.7283C88.4556 76.3231 87.8826 79.6632 83.9999 84C78.5242 89.2106 72.5085 88.5804 65.3749 88.5312C64.1546 88.5351 62.9344 88.5389 61.6772 88.5428C59.1018 88.5456 56.5264 88.5382 53.9511 88.5215C50.0136 88.5001 46.078 88.5213 42.1405 88.5469C39.6353 88.5442 37.1301 88.5391 34.6249 88.5312C33.4498 88.5393 32.2746 88.5474 31.0639 88.5558C24.9373 88.4856 20.6537 88.4285 15.9999 84C11.4237 78.8886 11.4606 74.5289 11.6093 68.0078C11.6133 67.1686 11.6173 66.3293 11.6215 65.4646C11.6423 62.3512 11.6981 59.2381 11.7499 56.125C11.8324 49.1537 11.9149 42.1825 11.9999 35ZM30.9999 46C29.3958 47.1852 29.3958 47.1852 27.9999 49C27.7492 51.6257 27.7492 51.6257 27.9999 54C30.2659 55.2904 30.2659 55.2904 32.9999 56C35.325 54.7365 35.325 54.7365 36.9999 53C36.8938 50.5478 36.8938 50.5478 35.9999 48C33.5235 46.6253 33.5235 46.6253 30.9999 46ZM46.7499 47.9375C45.8837 48.9584 45.8837 48.9584 44.9999 50C46.0547 53.6946 46.0547 53.6946 48.8749 56.0625C51.2261 56.2167 51.2261 56.2167 53.2499 54.0625C54.1162 53.0416 54.1162 53.0416 54.9999 52C53.9452 48.3054 53.9452 48.3054 51.1249 45.9375C48.7737 45.7833 48.7737 45.7833 46.7499 47.9375ZM64.7499 47.4375C63.8837 48.2109 63.8837 48.2109 62.9999 49C63.106 51.4522 63.106 51.4522 63.9999 54C66.3053 55.5722 66.3053 55.5722 68.9999 56C69.9899 55.34 70.9799 54.68 71.9999 54C71.6699 51.69 71.3399 49.38 70.9999 47C68.1493 45.8801 67.4087 45.7388 64.7499 47.4375ZM27.9999 67C27.5832 69.5 27.5832 69.5 27.9999 72C29.8269 74.2492 29.8269 74.2492 32.4999 74.25C35.1729 74.2492 35.1729 74.2492 36.9999 72C36.6702 68.7029 36.3772 67.3773 33.9999 65C30.815 64.7226 30.815 64.7226 27.9999 67ZM46.1249 66.6875C44.6694 69.0187 44.6694 69.0187 45.8124 71.75C46.2043 72.4925 46.5962 73.235 46.9999 74C48.9799 74 50.9599 74 52.9999 74C54.2903 71.734 54.2903 71.734 54.9999 69C54.0096 66.5962 54.0096 66.5962 51.9999 65C48.075 64.554 48.075 64.554 46.1249 66.6875Z" fill="white"/>
<path d="M34.625 11.4687C36.4554 11.4629 36.4554 11.4629 38.3228 11.4571C40.8981 11.4544 43.4735 11.4617 46.0488 11.4784C49.9863 11.4998 53.922 11.4786 57.8594 11.453C60.3646 11.4557 62.8698 11.4608 65.375 11.4687C66.5501 11.4606 67.7253 11.4525 68.936 11.4441C75.2493 11.5164 79.2407 11.6858 84 15.9999C88.4684 21.1739 88 22.479 88 29.9999C62.92 29.9999 37.84 29.9999 12 29.9999C12 20.6315 12 20.6315 16 15.9999C21.6178 10.9076 27.3095 11.4183 34.625 11.4687Z" fill="white"/>
</svg>
