<svg width="100" height="100" viewBox="0 0 100 100" fill="none" xmlns="http://www.w3.org/2000/svg">
<g clip-path="url(#clip0_51_1145)">
<path d="M29 1.00042C35.2274 6.39105 39.8532 13.7717 42 21.6879C42 25.8784 41.4023 27.5383 39 31.0004C37.4292 32.2867 35.8446 33.5562 34.25 34.8129C31.0803 37.4867 31.0803 37.4867 29.3555 41.1254C29.6257 48.331 34.6142 53.6793 39 59.0004C39.5956 59.7597 40.1911 60.5189 40.8047 61.3012C45.1127 66.5721 49.9213 71.4817 56.918 72.3715C60.7884 71.9055 62.3359 70.606 65.25 68.0629C70.9719 63.1473 70.9719 63.1473 74.625 62.6254C82.671 63.5194 89.5874 70.352 95 76.0004C96.9778 78.7096 96.9996 80.0259 96.9453 83.4535C95.2849 89.6837 90.1333 92.4941 85 96.0004C77.5156 100.269 69.2606 101.106 60.9141 99.352C48.322 95.8525 39.3217 88.9203 30 80.0004C29.3967 79.4603 28.7935 78.9202 28.1719 78.3637C16.5783 67.6098 4.99673 50.2161 3.78908 34.2035C3.47042 24.5456 5.08121 16.4419 11.2461 8.82464C16.2888 3.57982 21.5578 -1.3867 29 1.00042Z" fill="white"/>
</g>
<defs>
<clipPath id="clip0_51_1145">
<rect width="100" height="100" fill="white"/>
</clipPath>
</defs>
</svg>
