<svg width="51" height="50" viewBox="0 0 51 50" fill="none" xmlns="http://www.w3.org/2000/svg">
<path fill-rule="evenodd" clip-rule="evenodd" d="M0.5 10C0.5 4.47715 4.97715 0 10.5 0H40.5C46.0228 0 50.5 4.47715 50.5 10V40C50.5 45.5228 46.0228 50 40.5 50H10.5C4.97715 50 0.5 45.5228 0.5 40V10ZM25.524 8C26.0763 8 26.524 8.44771 26.524 9V26.4641L30.2691 22.4538C30.6461 22.0502 31.2789 22.0286 31.6825 22.4055C32.0862 22.7825 32.1078 23.4153 31.7309 23.8189L26.2549 29.6825C26.0663 29.8845 25.8025 29.9994 25.5262 30C25.2499 30.0006 24.9856 29.8868 24.7961 29.6857L19.2721 23.8221C18.8934 23.4201 18.9123 22.7872 19.3143 22.4085C19.7163 22.0298 20.3492 22.0487 20.7279 22.4506L24.524 26.4802V9C24.524 8.44771 24.9717 8 25.524 8ZM9.08325 27.7433C7.42639 27.7433 6.08325 29.0864 6.08325 30.7433V41.029C6.08325 42.6858 7.42639 44.029 9.08325 44.029H43.1785C44.8353 44.029 46.1785 42.6858 46.1785 41.029V30.7433C46.1785 29.0864 44.8353 27.7433 43.1785 27.7433H36.5823C36.03 27.7433 35.5823 28.191 35.5823 28.7433C35.5823 29.2955 36.03 29.7433 36.5823 29.7433H43.1785C43.7308 29.7433 44.1785 30.191 44.1785 30.7433V41.029C44.1785 41.5813 43.7308 42.029 43.1785 42.029H9.08325C8.53096 42.029 8.08325 41.5813 8.08325 41.029V30.7433C8.08325 30.191 8.53096 29.7433 9.08325 29.7433H14.9373C15.4896 29.7433 15.9373 29.2955 15.9373 28.7433C15.9373 28.191 15.4896 27.7433 14.9373 27.7433H9.08325Z" fill="black"/>
</svg>
