<svg width="100" height="100" viewBox="0 0 100 100" fill="none" xmlns="http://www.w3.org/2000/svg">
<path d="M9 25C12.6867 26.2785 15.0418 27.6713 17.7805 30.4399C18.4809 31.1405 19.1812 31.8411 19.9028 32.5629C21.0124 33.6958 21.0124 33.6958 22.1445 34.8516C22.9143 35.6256 23.6841 36.3996 24.4772 37.1971C26.9295 39.6661 29.371 42.1453 31.8125 44.625C33.4752 46.3028 35.1386 47.9799 36.8027 49.6562C40.8765 53.763 44.9415 57.8782 49 62C52.0826 60.6293 54.159 59.0749 56.5117 56.6677C57.1792 55.9904 57.8467 55.3131 58.5344 54.6152C59.2449 53.885 59.9555 53.1547 60.6875 52.4023C62.2056 50.8638 63.7238 49.3254 65.2422 47.7871C67.6279 45.3579 70.011 42.9262 72.3916 40.4919C74.6922 38.1432 77.0018 35.8036 79.3125 33.4648C80.023 32.7326 80.7335 32.0003 81.4656 31.2458C82.1331 30.5717 82.8006 29.8975 83.4883 29.2029C84.0713 28.6071 84.6544 28.0114 85.2551 27.3976C87.2144 25.8282 88.5029 25.2323 91 25C93.25 26.9375 93.25 26.9375 95 29C93.6718 32.8944 92.0734 35.3146 89.1963 38.2395C88.415 39.04 87.6337 39.8404 86.8287 40.6651C85.9829 41.5143 85.1371 42.3634 84.2656 43.2383C83.3948 44.119 82.5241 44.9998 81.6269 45.9073C79.7849 47.7645 77.9387 49.6176 76.0889 51.467C74.1929 53.3628 72.308 55.2686 70.4326 57.1848C67.7252 59.9471 64.9984 62.6887 62.2656 65.4258C61.4279 66.285 60.5902 67.1443 59.7271 68.0296C58.9332 68.8143 58.1393 69.599 57.3213 70.4075C56.2844 71.4507 56.2844 71.4507 55.2266 72.5151C52.2398 74.507 50.5257 74.5345 47 74C44.7287 72.4704 44.7287 72.4704 42.571 70.2998C41.7539 69.4919 40.9367 68.6839 40.0948 67.8515C39.2321 66.9672 38.3693 66.0829 37.4805 65.1719C36.5813 64.2713 35.6821 63.3708 34.7557 62.4429C32.858 60.5362 30.9671 58.6248 29.0852 56.7026C26.675 54.2414 24.2454 51.8004 21.8085 49.3657C19.4824 47.0386 17.1691 44.6989 14.8555 42.3594C13.5462 41.0451 13.5462 41.0451 12.2105 39.7043C11.4091 38.8837 10.6077 38.0632 9.78198 37.2178C9.07394 36.4983 8.3659 35.7788 7.6364 35.0375C5.94729 32.9344 5.20378 31.6835 5 29C6.9375 26.75 6.9375 26.75 9 25Z" fill="white"/>
</svg>
