<svg width="51" height="50" viewBox="0 0 51 50" fill="none" xmlns="http://www.w3.org/2000/svg">
<path fill-rule="evenodd" clip-rule="evenodd" d="M25.5 0C11.6929 0 0.5 11.1929 0.5 25C0.5 38.7862 11.6589 49.966 25.4372 49.9999C23.1994 49.8918 21.047 49.4917 19.0111 48.8072C19.7626 48.9461 20.4881 48.3434 20.4881 47.551V42.9007C19.527 43.0371 18.3874 43.1785 17.905 43.1562C16.5086 43.0929 15.2177 42.8722 14.5716 42.484C13.8189 42.0326 12.7624 41.1931 12.4536 40.521C12.3012 40.1896 12.1895 39.9152 12.0869 39.6631C11.8938 39.1888 11.733 38.7937 11.3946 38.2479C10.9295 37.4989 10.1284 36.7239 9.61132 36.4399C9.09421 36.1559 8.60314 35.7678 8.50021 35.5098C8.39728 35.2506 8.62918 34.8898 9.12025 34.8117C9.61008 34.7348 10.4893 34.8898 11.3933 35.3027C12.0778 35.6152 12.833 36.5019 13.3564 37.2658C13.9764 38.171 14.8035 39.1011 15.5005 39.514C16.1974 39.927 17.6446 40.1341 19.0136 39.927C19.5456 39.8476 20.0987 39.6492 20.5786 39.4384C20.7708 38.1549 21.3425 37.0016 22.1944 36.1013C14.8916 35.2072 10.8836 31.8206 10.8836 24.4012C10.8836 21.5403 11.836 19.1792 13.4605 17.3278C13.2758 16.9223 13.0823 16.3717 12.9868 15.6748C12.7847 14.2057 13.0002 13.2936 13.2048 12.4275C13.2161 12.3797 13.2274 12.332 13.2386 12.2844C13.4518 11.3742 13.7036 10.7343 13.7036 10.7343C13.7036 10.7343 14.8469 10.6177 15.8154 10.9476C15.8997 10.9763 15.983 11.0044 16.0656 11.0323C16.9318 11.3248 17.7219 11.5916 18.8189 12.2459C19.3844 12.5832 19.9536 12.9528 20.4025 13.2516C22.3296 12.7172 24.4526 12.4431 26.686 12.4431C28.8995 12.4431 31.0039 12.7159 32.9174 13.2467C33.365 12.9491 33.9305 12.582 34.4923 12.2472C35.5893 11.5928 36.3794 11.326 37.2456 11.0335C37.3282 11.0056 37.4114 10.9775 37.4957 10.9488C38.4642 10.6189 39.6076 10.7355 39.6076 10.7355C39.6076 10.7355 39.8593 11.3754 40.0726 12.2856C40.0838 12.3332 40.0951 12.3809 40.1063 12.4287C40.311 13.2948 40.5265 14.207 40.3244 15.676C40.2314 16.3556 40.0441 16.8962 39.8643 17.2993C41.5198 19.1619 42.4895 21.5378 42.4895 24.4024C42.4895 31.931 38.4332 35.237 31.1837 36.1075C32.2329 37.2174 32.8864 38.7067 32.8864 40.3548V47.5522C32.8864 48.0424 33.1639 48.4599 33.5532 48.6746C43.4092 45.3229 50.5 35.9895 50.5 25C50.5 11.1929 39.3071 0 25.5 0ZM10.6319 35.6437C10.5674 35.7715 10.6703 35.9525 10.8613 36.0505C11.0523 36.1485 11.2606 36.1249 11.3251 35.9972C11.3896 35.8694 11.2867 35.6884 11.0957 35.5904C10.9047 35.4925 10.6964 35.516 10.6319 35.6437ZM11.8819 36.9099C12.0481 37.0612 12.2639 37.0959 12.3643 36.9868C12.4647 36.8776 12.4114 36.6656 12.2452 36.5143C12.0791 36.363 11.8633 36.3283 11.7629 36.4374C11.6624 36.5465 11.7157 36.7586 11.8819 36.9099ZM12.8206 38.3508C12.9583 38.5431 13.1728 38.6261 13.2993 38.5369C13.4258 38.4476 13.4159 38.2182 13.2795 38.0259C13.1418 37.8337 12.9273 37.7506 12.8008 37.8399C12.6743 37.9292 12.683 38.1586 12.8206 38.3508ZM14.1004 39.7187C14.3137 39.8489 14.5568 39.8427 14.6423 39.7038C14.7279 39.5649 14.6237 39.3466 14.4104 39.2164C14.1971 39.0862 13.9541 39.0924 13.8685 39.2313C13.7829 39.3702 13.8871 39.5884 14.1004 39.7187ZM15.4744 40.4776C15.4521 40.6487 15.648 40.8136 15.9122 40.8459C16.1763 40.8781 16.407 40.7653 16.428 40.5954C16.4504 40.4243 16.2544 40.2593 15.9903 40.2271C15.7274 40.1948 15.4955 40.3064 15.4744 40.4776ZM17.4697 40.7839C17.4585 40.9649 17.678 41.1261 17.9595 41.1423C18.241 41.1584 18.4779 41.0245 18.489 40.8422C18.5002 40.6611 18.2807 40.4999 17.9992 40.4838C17.7177 40.4677 17.4809 40.6028 17.4697 40.7839ZM19.3484 40.6003C19.3484 40.7926 19.5915 40.9488 19.8916 40.9488C20.1904 40.9488 20.4347 40.7926 20.4347 40.6003C20.4347 40.4081 20.1917 40.2519 19.8916 40.2519C19.5915 40.2519 19.3484 40.4081 19.3484 40.6003Z" fill="black"/>
</svg>
