<svg width="51" height="50" viewBox="0 0 51 50" fill="none" xmlns="http://www.w3.org/2000/svg">
<path d="M15.0793 0C7.03968 0 0.5 6.54574 0.5 14.5874V35.4207C0.5 43.4603 7.04574 50 15.0874 50H35.9207C43.9603 50 50.5 43.4543 50.5 35.4126V14.5793C50.5 6.53968 43.9543 0 35.9126 0H15.0793ZM40.0833 8.33333C41.2333 8.33333 42.1667 9.26667 42.1667 10.4167C42.1667 11.5667 41.2333 12.5 40.0833 12.5C38.9333 12.5 38 11.5667 38 10.4167C38 9.26667 38.9333 8.33333 40.0833 8.33333ZM25.5 12.5C32.3937 12.5 38 18.1062 38 25C38 31.8937 32.3937 37.5 25.5 37.5C18.6062 37.5 13 31.8937 13 25C13 18.1062 18.6062 12.5 25.5 12.5ZM25.5 16.6667C23.2899 16.6667 21.1702 17.5446 19.6074 19.1074C18.0446 20.6702 17.1667 22.7899 17.1667 25C17.1667 27.2101 18.0446 29.3298 19.6074 30.8926C21.1702 32.4554 23.2899 33.3333 25.5 33.3333C27.7101 33.3333 29.8298 32.4554 31.3926 30.8926C32.9554 29.3298 33.8333 27.2101 33.8333 25C33.8333 22.7899 32.9554 20.6702 31.3926 19.1074C29.8298 17.5446 27.7101 16.6667 25.5 16.6667Z" fill="black"/>
</svg>
