<svg width="51" height="50" viewBox="0 0 51 50" fill="none" xmlns="http://www.w3.org/2000/svg">
<path d="M44.5476 0H6.45238C3.16667 0 0.5 2.66667 0.5 5.95238V44.0476C0.5 47.3333 3.16667 50 6.45238 50H44.5476C47.8333 50 50.5 47.3333 50.5 44.0476V5.95238C50.5 2.66667 47.8333 0 44.5476 0ZM15.9762 19.0476V41.6667H8.83333V19.0476H15.9762ZM8.83333 12.4643C8.83333 10.7976 10.2619 9.52381 12.4048 9.52381C14.5476 9.52381 15.8929 10.7976 15.9762 12.4643C15.9762 14.131 14.6429 15.4762 12.4048 15.4762C10.2619 15.4762 8.83333 14.131 8.83333 12.4643ZM42.1667 41.6667H35.0238C35.0238 41.6667 35.0238 30.6429 35.0238 29.7619C35.0238 27.381 33.8333 25 30.8571 24.9524H30.7619C27.881 24.9524 26.6905 27.4048 26.6905 29.7619C26.6905 30.8452 26.6905 41.6667 26.6905 41.6667H19.5476V19.0476H26.6905V22.0952C26.6905 22.0952 28.9881 19.0476 33.6071 19.0476C38.3333 19.0476 42.1667 22.2976 42.1667 28.881V41.6667Z" fill="black"/>
</svg>
