<svg width="100" height="100" viewBox="0 0 100 100" fill="none" xmlns="http://www.w3.org/2000/svg">
<g clip-path="url(#clip0_51_1142)">
<path d="M69.1874 21.6252C76.0416 27.1249 80.4086 34.6233 81.371 43.3752C81.7254 62.7224 71.9889 78.4603 59.9999 93.0002C70.8899 93.4952 70.8899 93.4952 81.9999 94.0002C82.3299 94.9902 82.6599 95.9802 82.9999 97.0002C82.3399 97.9902 81.6799 98.9802 80.9999 100C77.9305 100.388 77.9305 100.388 74.0155 100.399C73.3223 100.401 72.6291 100.404 71.9148 100.407C70.4454 100.409 68.976 100.404 67.5067 100.391C65.272 100.375 63.0392 100.391 60.8045 100.41C59.3749 100.408 57.9452 100.404 56.5155 100.399C55.219 100.395 53.9225 100.392 52.5868 100.388C47.3528 99.8219 44.1367 98.2075 40.5428 94.3908C28.394 78.1923 16.3918 61.3036 18.9999 40.0002C19.8832 36.6345 21.1443 33.9334 22.9999 31.0002C23.4356 30.2925 23.8713 29.5848 24.3202 28.8556C28.4938 22.7092 33.43 19.4418 40.2499 16.6877C50.7653 14.7598 60.246 15.5403 69.1874 21.6252ZM41.7499 39.6252C39.3032 42.9456 38.6603 45.8942 38.9999 50.0002C40.608 53.2165 41.977 55.25 44.8749 57.3752C49.3663 58.6962 52.1013 58.484 56.2499 56.2502C59.5425 53.6739 59.5425 53.6739 60.9999 50.0002C60.9226 45.1307 60.7318 42.9831 57.8124 39.0627C51.9737 34.781 47.394 35.5488 41.7499 39.6252Z" fill="white"/>
<path d="M90 94C92.97 94 95.94 94 99 94C99.33 95.32 99.66 96.64 100 98C98 100 98 100 94.375 100.125C93.2613 100.084 92.1475 100.043 91 100C89.9375 98.125 89.9375 98.125 89 96C89.33 95.34 89.66 94.68 90 94Z" fill="white"/>
</g>
<defs>
<clipPath id="clip0_51_1142">
<rect width="100" height="100" fill="white"/>
</clipPath>
</defs>
</svg>
