<svg width="100" height="100" viewBox="0 0 100 100" fill="none" xmlns="http://www.w3.org/2000/svg">
<path d="M7.99985 35C12.4524 36.3576 16.3717 38.1255 20.4647 40.3359C21.0611 40.6566 21.6575 40.9772 22.272 41.3075C24.1628 42.3256 26.0501 43.3503 27.9373 44.375C29.1995 45.0551 30.4619 45.7348 31.7245 46.4141C32.3369 46.7446 32.9493 47.0751 33.5803 47.4156C35.3584 48.3748 37.1378 49.3315 38.9173 50.2881C41.3592 51.6442 43.6704 53.0742 46.0038 54.6016C48.8779 56.2752 48.8779 56.2752 51.7772 55.6055C56.4372 53.2839 61.0141 50.8458 65.5623 48.3125C67.5271 47.2303 69.492 46.1483 71.4569 45.0664C73.3046 44.0444 75.1523 43.0223 76.9998 42C79.5796 40.5766 82.1631 39.1607 84.7498 37.75C85.7347 37.2086 86.7195 36.6672 87.7342 36.1094C89.9998 35 89.9998 35 91.9998 35C92.099 40.5867 92.1714 46.1729 92.2196 51.7603C92.2396 53.6594 92.2669 55.5586 92.3016 57.4575C92.3503 60.1932 92.3729 62.928 92.3905 65.6641C92.4111 66.508 92.4318 67.352 92.453 68.2216C92.4551 73.6105 91.7548 76.8402 87.9998 81C83.6987 83.5691 80.5244 84.3774 75.5389 84.3882C74.2774 84.3976 73.0159 84.4071 71.7162 84.4168C70.3524 84.4115 68.9886 84.4053 67.6248 84.3984C66.2129 84.4005 64.801 84.4034 63.389 84.4071C60.4369 84.4115 57.4851 84.4052 54.5331 84.3911C50.7603 84.374 46.9882 84.3839 43.2155 84.4018C40.302 84.4127 37.3886 84.4092 34.4751 84.4014C33.0845 84.3995 31.6939 84.4019 30.3034 84.4089C28.3558 84.4166 26.4083 84.4028 24.4608 84.3882C23.3553 84.3858 22.2497 84.3834 21.1107 84.381C16.1801 83.7772 12.9616 82.0654 9.64926 78.396C7.50064 73.9722 7.49066 70.5111 7.60922 65.6641C7.61488 64.7847 7.62054 63.9054 7.62637 62.9994C7.64866 60.2073 7.69884 57.4166 7.74985 54.625C7.76992 52.7253 7.78817 50.8255 7.80453 48.9258C7.84849 44.2834 7.91746 39.6419 7.99985 35Z" fill="white"/>
<path d="M24.3474 15.725C26.2398 15.7107 26.2398 15.7107 28.1704 15.6961C29.5394 15.6964 30.9084 15.6973 32.2773 15.6989C33.6907 15.695 35.1041 15.6907 36.5175 15.6859C39.4755 15.6785 42.4334 15.6787 45.3914 15.684C49.172 15.6898 52.9521 15.6729 56.7326 15.6496C59.6503 15.6349 62.568 15.634 65.4858 15.6372C66.8792 15.6366 68.2726 15.6314 69.6659 15.6213C71.6183 15.6089 73.5708 15.6177 75.5232 15.6274C77.186 15.6264 77.186 15.6264 78.8824 15.6254C84.0166 16.2417 87.1379 17.9334 90.375 21.9372C92 24.9997 92 24.9997 92 28.9997C91.2857 29.3819 90.5714 29.7641 89.8354 30.1579C87.118 31.6131 84.4015 33.0701 81.6856 34.5282C80.4817 35.1741 79.2775 35.8194 78.0729 36.4641C69.6284 40.9725 69.6284 40.9725 61.332 45.7458C60.6973 46.1247 60.0626 46.5037 59.4087 46.8942C57.81 47.8629 56.2229 48.8505 54.6367 49.8395C51.4313 51.2499 50.3279 50.9092 47 49.9997C45.3202 49.2569 43.668 48.4495 42.043 47.5934C41.102 47.1007 40.1611 46.6079 39.1917 46.1003C38.2003 45.5721 37.2089 45.0439 36.1875 44.4997C34.6627 43.6958 34.6627 43.6958 33.1072 42.8756C24.6538 38.3982 16.2934 33.7662 8 28.9997C8.67246 24.131 9.46226 21.5374 13 17.9997C16.8647 16.0647 20.0533 15.7429 24.3474 15.725Z" fill="white"/>
</svg>
