<svg width="171" height="179" viewBox="0 0 171 179" fill="none" xmlns="http://www.w3.org/2000/svg">
<path d="M44.054 0.179688C37.4519 1.7125 33.6179 6.32589 29.04 11.3026C27.5621 12.8629 27.5621 12.8629 26.0543 14.4548C23.9808 16.6573 21.9191 18.8723 19.8686 21.099C16.7273 24.4994 13.5392 27.8433 10.3429 31.185C8.33246 33.3338 6.32488 35.4856 4.32051 37.6408C3.36587 38.6378 2.41124 39.6347 1.42767 40.6619C2.60232 35.0033 -2.30672 44.7759 1.42767 40.6619C2.85296 48.9608 6.60422 53.5145 12.0468 59.2308C13.2201 60.5017 14.3934 61.7726 15.6023 63.082C19.4893 67.2777 24.7649 71.4135 28.689 75.5698C31.3995 78.4696 34.1087 81.3707 36.8167 84.2731C42.498 90.3502 48.1964 96.4083 53.9068 102.454C61.2333 110.215 68.5121 118.024 75.7783 125.848C81.3625 131.849 82.9139 133.093 88.5321 139.057C91.2274 141.926 97.9729 149.533 100.651 152.42C104.393 156.447 108.17 160.435 111.957 164.414C113.063 165.619 114.169 166.825 115.308 168.066C122.915 175.945 122.915 175.945 129.331 175.947C135.447 173.069 132.191 181.556 136.843 176.58C137.833 175.543 138.823 174.505 139.843 173.436C141.922 171.244 143.992 169.041 146.052 166.828C149.214 163.446 152.424 160.12 155.639 156.795C157.656 154.655 159.67 152.513 161.68 150.367C162.644 149.376 163.609 148.385 164.602 147.365C171.011 140.353 171.011 140.353 170.999 134.443C168.349 126.696 163.453 121.807 158.057 116.123C156.902 114.875 155.747 113.626 154.556 112.34C150.736 108.224 146.888 104.138 143.038 100.054C140.372 97.2034 137.708 94.3518 135.044 91.4993C129.46 85.5279 123.861 79.5717 118.253 73.6254C111.061 65.9971 103.908 58.329 96.7658 50.6485C91.2732 44.7524 85.7588 38.8797 80.2378 33.0138C77.591 30.1953 74.9515 27.3691 72.3192 24.5351C68.6399 20.5801 64.9321 16.6583 61.2152 12.7434C60.13 11.5639 59.0449 10.3843 57.9269 9.16905C53.4243 4.48315 50.3446 1.39558 44.054 0.179688ZM49.2856 17.146C51.0833 19.1232 51.0833 19.1232 52.9174 21.1404C51.9895 22.9323 51.9895 22.9323 51.0429 24.7604C49.1685 29.1293 49.1685 29.1293 49.1685 35.1209C54.9896 35.1209 57.3273 34.0437 62.2897 31.1265C64.1454 33.1037 66.0011 35.081 67.9131 37.1181C65.273 43.5397 62.0958 47.747 57.3692 52.5966C56.1852 53.822 55.0013 55.0475 53.7814 56.3101C52.8777 57.2267 51.974 58.1432 51.0429 59.0875C52.8986 61.0648 54.7544 63.042 56.6663 65.0792C62.2335 59.1474 67.8006 53.2157 73.5365 47.1042C77.2479 49.0815 77.2479 49.0815 81.0343 51.0987C81.7275 59.1798 81.7275 59.1798 77.2854 65.0792C79.1411 66.3973 80.9968 67.7155 82.9088 69.0736C84.7645 67.0964 86.6202 65.1191 88.5321 63.082C92.2436 65.0592 92.2436 65.0592 96.03 67.0764C96.8209 74.9548 96.8209 74.9548 92.7497 79.3405C91.3579 80.7308 89.9661 82.121 88.5321 83.5534C86.4445 85.6697 86.4445 85.6697 84.3146 87.8287C83.2321 88.8894 82.1496 89.9501 81.0343 91.043C82.89 93.0202 84.7457 94.9975 86.6577 97.0346C92.2248 91.1029 97.792 85.1712 103.528 79.0597C106.002 80.3778 108.476 81.696 111.026 83.0541C111.719 91.1353 111.719 91.1353 107.277 97.0346C109.132 98.3528 110.988 99.671 112.9 101.029C114.756 99.0518 116.612 97.0746 118.524 95.0374C120.998 96.3556 123.472 97.6737 126.021 99.0319C126.812 106.91 126.812 106.91 122.741 111.296C121.349 112.686 119.957 114.077 118.524 115.509C116.436 117.625 116.436 117.625 114.306 119.784C113.223 120.845 112.141 121.906 111.026 122.998C112.881 124.976 114.737 126.953 116.649 128.99C125 120.093 125 120.092 133.519 111.015C135.993 112.333 138.468 113.651 141.017 115.01C141.71 123.091 141.71 123.091 137.268 128.99C139.124 130.308 140.98 131.626 142.892 132.985C144.747 131.007 146.603 129.03 148.515 126.993C154.44 129.729 155.999 130.965 159.762 136.979C147.39 150.161 144.769 151.8 132.022 165.381C123.66 157.744 120.621 155.652 112.9 147.365C111.893 146.291 106.634 143.267 105.596 142.161C102.316 138.665 102.856 137.947 99.5824 134.443C97.2902 131.997 90.8252 125.444 88.5321 122.998C82.5345 116.6 74.2122 112.75 68.2214 106.344C62.0926 99.7935 55.4194 95.0763 49.2856 88.5309C37.2782 75.7158 22.3406 59.9297 10.3429 47.1042C19.0796 36.1097 14.7925 44.0986 24.0756 33.6308C25.2149 32.4143 26.3541 31.1979 27.528 29.9445C28.6769 28.7281 29.8258 27.5116 31.0096 26.2583C32.1948 24.9877 33.38 23.7172 34.6011 22.4082C36.2919 20.6105 36.2919 20.6105 38.0169 18.7765C39.0349 17.6941 40.0529 16.6116 41.1018 15.4964C45.1945 11.5686 45.0866 12.8075 49.2856 17.146Z" fill="white"/>
<path d="M114.121 12.1797C125.399 12.8652 134.975 14.7054 144.047 21.4313C149.539 27.4972 153.453 33.2521 155 41.178C153.722 48.8842 149.164 54.2289 144.425 60.3854C142.372 63.1343 140.319 65.8835 138.267 68.6332C137.211 70.0315 136.156 71.4298 135.068 72.8704C130.231 79.3165 125.535 85.853 120.832 92.3877C118.995 94.9252 117.158 97.4622 115.32 99.9988C111.478 105.306 107.647 110.621 103.822 115.94C102.847 117.295 101.871 118.649 100.865 120.045C99.025 122.6 97.1874 125.157 95.3532 127.716C93.6434 130.088 91.9155 132.448 90.1694 134.795C88.3346 137.304 86.5716 139.86 84.8683 142.451C77.0529 153.659 69.0307 157.445 55.728 161.426C53.1167 162.283 53.1167 162.283 50.4525 163.157C37.983 167.18 37.983 167.18 33.0175 167.18C28.2083 150.027 26.2534 130.013 35.6197 114.075C40.625 106.641 46.1828 99.6273 51.8917 92.6715C57.047 86.2976 61.7224 79.6319 66.4525 72.9706C68.2652 70.4687 70.0816 67.9692 71.9014 65.4719C75.7445 60.19 79.5761 54.9009 83.3986 49.6056C84.3847 48.2401 85.3708 46.8746 86.3868 45.4677C88.2528 42.8831 90.1182 40.2981 91.9826 37.7124C93.6836 35.3589 95.3932 33.011 97.1122 30.6693C98.8566 28.2599 100.556 25.8206 102.217 23.3589C108.604 14.165 108.604 14.165 114.121 12.1797ZM121.841 36.7732C118.238 40.0574 118.238 40.0574 115.785 44.4442C116.223 48.6786 116.223 48.6786 117.804 52.1152C119.136 52.1152 120.468 52.1152 121.841 52.1152C125.418 47.7304 125.418 47.7304 127.897 42.5265C127.231 40.6279 126.565 38.7293 125.878 36.7732C124.546 36.7732 123.214 36.7732 121.841 36.7732ZM99.6351 67.4571C95.8002 72.182 92.2028 76.923 88.6583 81.8402C87.596 83.2965 86.5336 84.7529 85.439 86.2534C83.2122 89.3091 80.9909 92.3684 78.7747 95.431C75.5061 99.9273 72.1969 104.394 68.8733 108.853C66.8461 111.595 64.8195 114.336 62.7935 117.079C61.8296 118.365 60.8656 119.652 59.8724 120.978C54.5059 128.053 54.5059 128.053 53.2046 136.496C58.0154 135.762 60.6538 135.189 64.0996 131.824C64.9437 130.651 65.7878 129.479 66.6575 128.27C67.6224 126.952 68.5874 125.633 69.5816 124.275C70.5891 122.849 71.5967 121.424 72.6348 119.955C74.2066 117.776 74.2066 117.776 75.8102 115.553C77.9808 112.536 80.1412 109.512 82.2917 106.482C85.3694 102.165 88.4992 97.8874 91.647 93.6163C93.5125 91.0505 95.3762 88.4836 97.2379 85.9154C98.123 84.7198 99.0081 83.5242 99.92 82.2924C102.618 78.6079 102.618 78.6079 105.691 73.2103C105.025 71.3118 104.359 69.4132 103.673 67.4571C102.34 67.4571 101.008 67.4571 99.6351 67.4571Z" fill="white"/>
</svg>
