<svg width="51" height="50" viewBox="0 0 51 50" fill="none" xmlns="http://www.w3.org/2000/svg">
<path d="M8.83333 0C4.23095 0 0.5 3.73095 0.5 8.33333V41.6667C0.5 46.269 4.23095 50 8.83333 50H42.1667C46.769 50 50.5 46.269 50.5 41.6667V8.33333C50.5 3.73095 46.769 0 42.1667 0H8.83333ZM11.3166 10.7143H20.766L27.4764 20.2497L35.619 10.7143H38.5952L28.8203 22.1587L40.8739 39.2857H31.4268L23.6399 28.2227L14.1905 39.2857H11.2143L22.2959 26.3137L11.3166 10.7143ZM15.8739 13.0952L32.6684 36.9048H36.3166L19.522 13.0952H15.8739Z" fill="black"/>
</svg>
